<svg width="76" height="76" viewBox="0 0 76 76" fill="none" xmlns="http://www.w3.org/2000/svg">
<path d="M22.1667 66.4999H53.8333M36.0367 37.9999C34.1188 38.0178 32.2651 37.3099 30.8474 36.0182C29.4296 34.7265 28.5527 32.9466 28.3924 31.0354C28.2321 29.1241 28.8004 27.223 29.9832 25.7132C31.1661 24.2035 32.876 23.1967 34.77 22.8949C34.4668 21.553 34.5335 20.1539 34.963 18.8469C35.3926 17.5399 36.1688 16.374 37.209 15.4736C38.2492 14.5731 39.5143 13.972 40.8694 13.7342C42.2245 13.4964 43.6187 13.6308 44.9033 14.1233C45.4658 13.2378 46.2056 12.4783 47.076 11.8927C47.9464 11.3071 48.9286 10.908 49.9608 10.7206C50.993 10.5332 52.0528 10.5615 53.0736 10.8038C54.0943 11.046 55.0538 11.497 55.8917 12.1283C57.3533 10.9795 59.1853 10.4063 61.041 10.5171C62.8968 10.6279 64.6475 11.415 65.9621 12.7295C67.2766 14.0441 68.0638 15.7949 68.1746 17.6506C68.2853 19.5063 67.7121 21.3383 66.5633 22.7999C67.2784 23.7497 67.7606 24.854 67.9713 26.024C68.182 27.194 68.1153 28.3972 67.7765 29.5367C67.4377 30.6763 66.8363 31.7205 66.0206 32.5854C65.205 33.4502 64.1978 34.1117 63.08 34.5166C63.3689 35.6564 63.4014 36.8461 63.175 37.9999M41.1667 37.9999L53.8333 25.3333M34.5167 22.9583C32.7797 21.1066 30.5252 19.8212 28.0471 19.2695C25.5689 18.7178 22.9821 18.9255 20.6237 19.8654C18.2652 20.8054 16.2447 22.434 14.8254 24.539C13.4061 26.644 12.6538 29.1278 12.6667 31.6666C12.6667 33.9783 13.3 36.1316 14.3767 37.9999M38 66.4999C45.5587 66.4999 52.8078 63.4973 58.1525 58.1525C63.4973 52.8077 66.5 45.5586 66.5 37.9999H9.5C9.5 45.5586 12.5027 52.8077 17.8475 58.1525C23.1922 63.4973 30.4413 66.4999 38 66.4999Z" stroke="#15FE80" stroke-width="4.75" stroke-linecap="round" stroke-linejoin="round"/>
</svg>
